<?xml version="1.0" encoding="utf-8"?>
<!-- Generator: Adobe Illustrator 21.1.0, SVG Export Plug-In . SVG Version: 6.00 Build 0)  -->
<svg version="1.1" id="Layer_1" xmlns="http://www.w3.org/2000/svg" xmlns:xlink="http://www.w3.org/1999/xlink" x="0px" y="0px"
	 viewBox="0 0 119.1 119.1" style="enable-background:new 0 0 119.1 119.1;" xml:space="preserve">
<style type="text/css">
	.st0{fill:#FFFFFF;}
	.st1{fill:#CCCCCC;}
</style>
<title>logo-dark</title>
<g>
	<g>
		<circle class="st0" cx="59.6" cy="59.5" r="56"/>
		<path class="st1" d="M59.5,117.1C27.8,117.1,2,91.3,2,59.5S27.8,2,59.5,2s57.6,25.8,57.6,57.6S91.3,117.1,59.5,117.1z M59.5,5
			C29.5,5,5,29.5,5,59.5s24.5,54.5,54.5,54.5c30.1,0,54.5-24.5,54.5-54.5S89.6,5,59.5,5z"/>
	</g>
	<g>
		<g>
			<path class="st1" d="M77.5,35.6c9.4,0,17,7.5,17,16.6c0,2.6-0.6,5-1.8,7.4l-0.1,0.2L92.5,60C88.6,71.6,68,85.4,59.6,90.7
				c-8.4-5.3-29.1-19.2-33-30.7l-0.1-0.2l-0.1-0.2c-1.2-2.3-1.8-4.8-1.8-7.4c0-9.2,7.6-16.6,17-16.6c6.5,0,12.3,3.6,15.2,9.3
				l2.7,5.4l2.7-5.4C65.2,39.1,71,35.6,77.5,35.6 M77.5,32.5c-7.9,0-14.7,4.5-17.9,11c-3.3-6.5-10.1-11-17.9-11
				c-11.1,0-20,8.8-20,19.7c0,3.1,0.8,6.1,2.1,8.7c4.4,13.1,27.1,28,35.9,33.4v0C68.3,89,91,74.1,95.4,60.9c1.3-2.6,2.1-5.6,2.1-8.7
				C97.5,41.3,88.6,32.5,77.5,32.5L77.5,32.5z"/>
		</g>
	</g>
</g>
</svg>
