<?xml version="1.0" encoding="utf-8"?>
<!-- Generator: Adobe Illustrator 21.1.0, SVG Export Plug-In . SVG Version: 6.00 Build 0)  -->
<svg version="1.1" id="Layer_1" xmlns="http://www.w3.org/2000/svg" xmlns:xlink="http://www.w3.org/1999/xlink" x="0px" y="0px"
	 viewBox="0 0 119.1 119.1" style="enable-background:new 0 0 119.1 119.1;" xml:space="preserve">
<style type="text/css">
	.st0{fill:#0619C0;}
	.st1{fill:#FFFFFF;}
</style>
<title>logo-dark</title>
<g>
	<g>
		<circle class="st0" cx="59.5" cy="59.5" r="56.5"/>
		<path class="st1" d="M59.5,117.6c-32,0-58.1-26.1-58.1-58.1S27.5,1.5,59.5,1.5c32,0,58.1,26.1,58.1,58.1S91.6,117.6,59.5,117.6z
			 M59.5,4.6c-30.3,0-55,24.7-55,55s24.7,55,55,55s55-24.7,55-55S89.9,4.6,59.5,4.6z"/>
	</g>
	<g>
		<g>
			<path class="st1" d="M77.7,35.4c9.4,0,17.1,7.5,17.1,16.8c0,2.6-0.6,5.1-1.8,7.4l-0.1,0.2L92.8,60c-3.9,11.7-24.7,25.7-33.2,31
				c-8.5-5.3-29.3-19.3-33.3-31l-0.1-0.2l-0.1-0.2c-1.2-2.3-1.8-4.8-1.8-7.4c0-9.3,7.7-16.8,17.1-16.8c6.5,0,12.4,3.6,15.3,9.4
				l2.8,5.5l2.8-5.5C65.2,38.9,71.1,35.4,77.7,35.4 M77.7,32.3c-7.9,0-14.8,4.5-18.1,11.1c-3.3-6.5-10.2-11.1-18.1-11.1
				c-11.2,0-20.2,8.9-20.2,19.9c0,3.2,0.8,6.2,2.1,8.8c4.4,13.2,27.3,28.2,36.2,33.7v0c8.8-5.4,31.7-20.4,36.2-33.7
				c1.3-2.7,2.1-5.6,2.1-8.8C97.9,41.2,88.8,32.3,77.7,32.3L77.7,32.3z"/>
		</g>
	</g>
</g>
</svg>
