<?xml version="1.0" encoding="utf-8"?>
<!-- Generator: Adobe Illustrator 21.1.0, SVG Export Plug-In . SVG Version: 6.00 Build 0)  -->
<svg version="1.1" id="Layer_1" xmlns="http://www.w3.org/2000/svg" xmlns:xlink="http://www.w3.org/1999/xlink" x="0px" y="0px"
	 viewBox="0 0 119.1 119.1" style="enable-background:new 0 0 119.1 119.1;" xml:space="preserve">
<style type="text/css">
	.st0{fill:none;stroke:#0619C0;stroke-width:7;}
	.st1{enable-background:new    ;}
	.st2{fill:#0619C0;}
	.st3{fill:#FFFFFF;}
</style>
<title>logo-dark</title>
<circle class="st0" cx="59.5" cy="59.5" r="56"/>
<g class="st1">
	<path class="st2" d="M74.5,72.9h17.2v8.6h-28V35.1h10.8V72.9z"/>
</g>
<path class="st2" d="M63.5,82.1c-0.9,0-1.8-0.2-2.6-0.8c-0.7-0.5-1.2-1.1-1.4-1.9l-2.6-7.8H39.8l-2.6,7.8c-0.6,1.6-2.2,2.7-4,2.7
	h-9.1l18.4-47.4h11.7l18.4,47.4H63.5z M54,63.3l-4-12l-1-2.9c-0.2-0.6-0.4-1.2-0.6-1.9c-0.2,0.7-0.4,1.3-0.6,1.9
	c-0.4,1.1-0.7,2.1-1,2.9l-4,12L54,63.3z"/>
<path class="st3" d="M53.8,35.2l18,46.4h-8.3c-0.8,0-1.6-0.2-2.3-0.7c-0.6-0.4-1-1-1.3-1.7l-2.7-8.1H39.5l-2.7,8.1
	c-0.6,1.4-2,2.4-3.5,2.3h-8.4l18-46.4L53.8,35.2 M42,63.8h12.7l-4.3-12.7l-1-2.9c-0.4-1.1-0.7-2.3-1.1-3.5c-0.3,1.3-0.7,2.5-1,3.6
	c-0.4,1.1-0.7,2.1-1,2.9L42,63.8 M54.5,34.2H42.1l-0.2,0.6l-18,46.4l-0.5,1.4h9.9c2,0,3.7-1.2,4.5-3l2.5-7.4h16.2l2.5,7.4
	c0.3,0.9,0.9,1.6,1.7,2.2c0.8,0.6,1.9,0.9,2.9,0.8h9.8l-0.5-1.4l-18-46.4L54.5,34.2L54.5,34.2z M43.4,62.8l3.8-11.3
	c0.3-0.8,0.7-1.8,1-2.9l0.1-0.4l0.1,0.4l1,2.9l3.8,11.4H43.4z"/>
</svg>
