<svg id="Layer_1" data-name="Layer 1" xmlns="http://www.w3.org/2000/svg" viewBox="0 0 127 127"><defs><style>.cls-1{fill:#fff;}.cls-2{fill:#232323;}</style></defs><title>logo-white</title><path class="cls-1" d="M672.6,574a63.5,63.5,0,1,1,63.5-63.5A63.57,63.57,0,0,1,672.6,574Zm0-117.56a54.06,54.06,0,1,0,54.06,54.06A54.12,54.12,0,0,0,672.6,456.44Z" transform="translate(-609.1 -447)"/><path class="cls-1" d="M689.46,522.33H707.2v8.87H678.35V483.33h11.11Z" transform="translate(-609.1 -447)"/><path class="cls-1" d="M678,532.41a5.11,5.11,0,0,1-3.06-.89,4.6,4.6,0,0,1-1.72-2.29l-2.56-7.56H654.15l-2.56,7.56a5,5,0,0,1-4.71,3.18H636.52l19.43-50.18h13l19.42,50.18ZM667.35,511.8l-3.89-11.59-1-3,0,.06q-.57,1.75-1.07,3l-3.87,11.47Z" transform="translate(-609.1 -447)"/><path class="cls-2" d="M668.1,483.39l18.53,47.87H678a4,4,0,0,1-2.38-.67,3.46,3.46,0,0,1-1.3-1.72l-2.83-8.35h-18.2l-2.83,8.35a3.81,3.81,0,0,1-3.61,2.4H638.2l18.53-47.87H668.1M655.88,513H669l-4.4-13.11-1-2.94q-.58-1.69-1.13-3.66-.53,2-1.09,3.71t-1,3l-4.4,13m13.81-31.88H655.15l-.57,1.48L636,530.42l-1.22,3.15h12a6.12,6.12,0,0,0,5.79-3.93l2.31-6.81h14.89l2.29,6.78a5.74,5.74,0,0,0,2.14,2.86,6.24,6.24,0,0,0,3.73,1.11h12l-1.22-3.15-18.53-47.87-.57-1.48ZM659.1,510.65l3.33-9.86,3.31,9.86Z" transform="translate(-609.1 -447)"/></svg>